<svg xmlns="http://www.w3.org/2000/svg" fill="none" viewBox="0 0 260 260"><path fill="#91ECF6" d="M260 130c0 71.797-58.203 130-130 130S0 201.797 0 130 58.203 0 130 0s130 58.203 130 130Z"/><path fill="#8E2C0B" d="M190.633 192.148c0 1.563.065 3.06.195 4.493v4.296c.13 1.563.065 3.125-.195 4.688-1.823-1.432-4.037-2.604-6.641-3.516-2.474-.781-6.185-1.302-11.133-1.562-7.812-.391-15.625.13-23.437 1.562-7.682 1.433-14.714 3.125-21.094 5.078-1.302.391-2.604.196-3.906-.585-1.302-.652-2.604-1.758-3.906-3.321-1.172-1.432-2.279-3.125-3.321-5.078a33.525 33.525 0 0 1-2.148-6.055c-.521-2.083-.846-4.427-.977-7.031-.13-2.604.065-5.338.586-8.203.651-2.995 1.823-6.055 3.516-9.18s4.101-6.25 7.226-9.375c2.865-2.734 6.901-5.859 12.11-9.375 5.338-3.645 10.612-7.747 15.82-12.304 5.339-4.558 9.961-9.636 13.867-15.235 3.907-5.599 5.99-11.849 6.25-18.75.521-9.896-.781-17.252-3.906-22.07-3.125-4.948-7.161-7.617-12.109-8.008-6.641-.52-12.11 1.953-16.407 7.422-4.166 5.469-7.487 13.607-9.961 24.414-.651.391-1.627.391-2.929 0a18.683 18.683 0 0 1-3.711-1.562c-1.432-.651-2.93-1.563-4.492-2.735-1.433-1.041-2.67-2.409-3.711-4.101-.912-1.823-1.302-3.646-1.172-5.47.13-2.343 1.107-5.468 2.93-9.374 1.822-3.906 4.557-7.617 8.203-11.133 3.776-3.646 8.463-6.64 14.062-8.984 5.729-2.474 12.565-3.386 20.508-2.735 4.427.391 8.594 1.693 12.5 3.907 3.906 2.083 7.292 5.078 10.156 8.984 2.865 3.906 5.078 8.659 6.641 14.258 1.562 5.469 2.148 11.784 1.758 18.945-.391 7.552-2.344 14.323-5.86 20.313-3.385 5.859-7.291 11.002-11.718 15.429-4.297 4.427-8.594 8.138-12.891 11.133-4.297 2.995-7.552 5.339-9.766 7.031a583.936 583.936 0 0 0-7.812 6.055c-2.474 1.823-4.557 3.906-6.25 6.25-1.563 2.214-2.604 4.688-3.125 7.422-.521 2.734-.261 5.924.781 9.57 3.125-1.172 7.227-2.409 12.305-3.711 5.208-1.432 11.002-2.409 17.383-2.929 4.687-.261 8.593-.326 11.718-.196 3.125 0 5.664.391 7.618 1.172 1.953.651 3.385 1.823 4.296 3.516 1.042 1.562 1.758 3.776 2.149 6.64ZM101.18 199.57c-.651 1.042-1.563 1.888-2.735 2.539a30.908 30.908 0 0 1-3.32 1.953c-1.302.521-2.67 1.042-4.102 1.563-1.041.26-2.278.521-3.71.781a79.08 79.08 0 0 1-4.102.782c-1.563.26-3.32.455-5.273.585a4989.681 4989.681 0 0 0 1.757-30.664c.521-9.765.912-18.359 1.172-25.781.39-8.724.716-16.862.977-24.414.52-9.375.781-16.927.781-22.656.13-5.73.195-10.287.195-13.672a21.058 21.058 0 0 1-6.054-2.148c-1.954-1.042-3.907-2.735-5.86-5.079.39-1.692 1.107-3.45 2.149-5.273a61.747 61.747 0 0 1 3.515-5.273 187.531 187.531 0 0 1 4.297-5.274c2.084-2.213 3.971-3.841 5.664-4.883 1.693-1.172 3.255-1.953 4.688-2.343 1.562-.521 3.06-.717 4.492-.586 1.562 0 3.19.065 4.883.195a2635.366 2635.366 0 0 0-.586 28.32c-.13 8.594-.26 16.211-.39 22.852-.131 7.682-.196 14.778-.196 21.289 0 8.333.065 16.536.195 24.609.13 7.031.26 14.388.391 22.07.26 7.683.651 14.519 1.172 20.508Z"/><path fill="#fff" d="M183.633 186.148c0 1.563.065 3.06.195 4.493v4.296c.13 1.563.065 3.125-.195 4.688-1.823-1.432-4.037-2.604-6.641-3.516-2.474-.781-6.185-1.302-11.133-1.562-7.812-.391-15.625.13-23.437 1.562-7.682 1.433-14.714 3.125-21.094 5.078-1.302.391-2.604.196-3.906-.585-1.302-.652-2.604-1.758-3.906-3.321-1.172-1.432-2.279-3.125-3.321-5.078a33.525 33.525 0 0 1-2.148-6.055c-.521-2.083-.846-4.427-.977-7.031-.13-2.604.065-5.338.586-8.203.651-2.995 1.823-6.055 3.516-9.18s4.101-6.25 7.226-9.375c2.865-2.734 6.901-5.859 12.11-9.375 5.338-3.645 10.612-7.747 15.82-12.304 5.339-4.558 9.961-9.636 13.867-15.235 3.907-5.599 5.99-11.849 6.25-18.75.521-9.896-.781-17.252-3.906-22.07-3.125-4.948-7.161-7.617-12.109-8.008-6.641-.52-12.11 1.953-16.407 7.422-4.166 5.469-7.487 13.607-9.961 24.414-.651.39-1.627.39-2.929 0a18.661 18.661 0 0 1-3.711-1.562c-1.432-.651-2.93-1.563-4.492-2.735-1.433-1.041-2.67-2.409-3.711-4.101-.912-1.823-1.302-3.646-1.172-5.47.13-2.343 1.107-5.468 2.93-9.374 1.822-3.906 4.557-7.617 8.203-11.133 3.776-3.646 8.463-6.64 14.062-8.984 5.729-2.474 12.565-3.386 20.508-2.735 4.427.391 8.594 1.693 12.5 3.907 3.906 2.083 7.292 5.078 10.156 8.984 2.865 3.906 5.078 8.659 6.641 14.258 1.562 5.469 2.148 11.784 1.758 18.945-.391 7.552-2.344 14.323-5.86 20.313-3.385 5.859-7.291 11.002-11.718 15.429-4.297 4.427-8.594 8.138-12.891 11.133-4.297 2.995-7.552 5.339-9.766 7.031a583.936 583.936 0 0 0-7.812 6.055c-2.474 1.823-4.557 3.906-6.25 6.25-1.563 2.214-2.604 4.688-3.125 7.422-.521 2.734-.261 5.924.781 9.57 3.125-1.172 7.227-2.409 12.305-3.711 5.208-1.432 11.002-2.409 17.383-2.929 4.687-.261 8.593-.326 11.718-.196 3.125 0 5.664.391 7.618 1.172 1.953.651 3.385 1.823 4.296 3.516 1.042 1.562 1.758 3.776 2.149 6.64ZM94.18 193.57c-.651 1.042-1.563 1.888-2.735 2.539a30.908 30.908 0 0 1-3.32 1.953c-1.302.521-2.67 1.042-4.102 1.563-1.041.26-2.278.521-3.71.781a79.08 79.08 0 0 1-4.102.782c-1.563.26-3.32.455-5.273.585a4989.681 4989.681 0 0 0 1.757-30.664c.521-9.765.912-18.359 1.172-25.781.39-8.724.716-16.862.977-24.414.52-9.375.781-16.927.781-22.656.13-5.73.195-10.287.195-13.672a21.058 21.058 0 0 1-6.054-2.148c-1.954-1.042-3.907-2.735-5.86-5.079.39-1.692 1.107-3.45 2.149-5.273a61.747 61.747 0 0 1 3.515-5.273 187.531 187.531 0 0 1 4.297-5.274c2.084-2.214 3.971-3.841 5.664-4.883 1.693-1.172 3.255-1.953 4.688-2.343 1.562-.521 3.06-.717 4.492-.586 1.562 0 3.19.065 4.883.195-.26 10.156-.456 19.596-.586 28.32-.13 8.594-.26 16.211-.39 22.852-.131 7.682-.196 14.778-.196 21.289 0 8.333.065 16.536.195 24.609.13 7.031.26 14.388.39 22.07.261 7.683.652 14.519 1.173 20.508Z"/><path fill="#EC4913" d="M188.633 190.148c0 1.563.065 3.06.195 4.493v4.296c.13 1.563.065 3.125-.195 4.688-1.823-1.432-4.037-2.604-6.641-3.516-2.474-.781-6.185-1.302-11.133-1.562-7.812-.391-15.625.13-23.437 1.562-7.682 1.433-14.714 3.125-21.094 5.078-1.302.391-2.604.196-3.906-.585-1.302-.652-2.604-1.758-3.906-3.321-1.172-1.432-2.279-3.125-3.321-5.078a33.525 33.525 0 0 1-2.148-6.055c-.521-2.083-.846-4.427-.977-7.031-.13-2.604.065-5.338.586-8.203.651-2.995 1.823-6.055 3.516-9.18s4.101-6.25 7.226-9.375c2.865-2.734 6.901-5.859 12.11-9.375 5.338-3.645 10.612-7.747 15.82-12.304 5.339-4.558 9.961-9.636 13.867-15.235 3.907-5.599 5.99-11.849 6.25-18.75.521-9.896-.781-17.252-3.906-22.07-3.125-4.948-7.161-7.617-12.109-8.008-6.641-.52-12.11 1.953-16.407 7.422-4.166 5.469-7.487 13.607-9.961 24.414-.651.391-1.627.391-2.929 0a18.683 18.683 0 0 1-3.711-1.562c-1.432-.651-2.93-1.563-4.492-2.735-1.433-1.041-2.67-2.409-3.711-4.101-.912-1.823-1.302-3.646-1.172-5.47.13-2.343 1.107-5.468 2.93-9.374 1.822-3.906 4.557-7.617 8.203-11.133 3.776-3.646 8.463-6.64 14.062-8.984 5.729-2.474 12.565-3.386 20.508-2.735 4.427.391 8.594 1.693 12.5 3.907 3.906 2.083 7.292 5.078 10.156 8.984 2.865 3.906 5.078 8.659 6.641 14.258 1.562 5.469 2.148 11.784 1.758 18.945-.391 7.552-2.344 14.323-5.86 20.313-3.385 5.859-7.291 11.002-11.718 15.429-4.297 4.427-8.594 8.138-12.891 11.133-4.297 2.995-7.552 5.339-9.766 7.031a583.936 583.936 0 0 0-7.812 6.055c-2.474 1.823-4.557 3.906-6.25 6.25-1.563 2.214-2.604 4.688-3.125 7.422-.521 2.734-.261 5.924.781 9.57 3.125-1.172 7.227-2.409 12.305-3.711 5.208-1.432 11.002-2.409 17.383-2.929 4.687-.261 8.593-.326 11.718-.196 3.125 0 5.664.391 7.618 1.172 1.953.651 3.385 1.823 4.296 3.516 1.042 1.562 1.758 3.776 2.149 6.64ZM99.18 197.57c-.651 1.042-1.563 1.888-2.735 2.539a30.908 30.908 0 0 1-3.32 1.953c-1.302.521-2.67 1.042-4.102 1.563-1.041.26-2.278.521-3.71.781a79.08 79.08 0 0 1-4.102.782c-1.563.26-3.32.455-5.273.585a4989.681 4989.681 0 0 0 1.757-30.664c.521-9.765.912-18.359 1.172-25.781.39-8.724.716-16.862.977-24.414.52-9.375.781-16.927.781-22.656.13-5.73.195-10.287.195-13.672a21.058 21.058 0 0 1-6.054-2.148c-1.954-1.042-3.907-2.735-5.86-5.079.39-1.692 1.107-3.45 2.149-5.273a61.747 61.747 0 0 1 3.515-5.273 187.531 187.531 0 0 1 4.297-5.274c2.084-2.214 3.971-3.841 5.664-4.883 1.693-1.172 3.255-1.953 4.688-2.343 1.562-.521 3.06-.717 4.492-.586 1.562 0 3.19.065 4.883.195-.26 10.156-.456 19.596-.586 28.32-.13 8.594-.26 16.211-.39 22.852-.131 7.682-.196 14.778-.196 21.289 0 8.333.065 16.536.195 24.609.13 7.031.26 14.388.39 22.07.261 7.683.652 14.519 1.173 20.508Z"/></svg>
