<svg xmlns="http://www.w3.org/2000/svg" fill="none" viewBox="0 0 705 92"><ellipse cx="56.5" cy="56.5" fill="#FC605C" rx="56.5" ry="35.5"/><text fill="#fff" font-family="monospace" font-size="18" letter-spacing="0" style="white-space:pre"><tspan x="32" y="61.825">Parse</tspan></text><ellipse cx="648.5" cy="56.5" fill="#9059FF" rx="56.5" ry="35.5"/><text fill="#fff" font-family="monospace" font-size="14" letter-spacing="0" style="white-space:pre"><tspan x="614.362" y="45.808">Composite </tspan><tspan x="645.151" y="62.808">&amp; </tspan><tspan x="625.908" y="79.808">Render</tspan></text><ellipse cx="500.5" cy="56.5" fill="#5186ED" rx="56.5" ry="35.5"/><text fill="#fff" font-family="monospace" font-size="18" letter-spacing="0" style="white-space:pre"><tspan x="476" y="61.825">Paint</tspan></text><ellipse cx="352.5" cy="56.5" fill="#34C749" rx="56.5" ry="35.5"/><text fill="#000" font-family="monospace" font-size="18" letter-spacing="0" style="white-space:pre"><tspan x="323" y="61.825">Layout</tspan></text><ellipse cx="204.5" cy="56.5" fill="#FDBC40" rx="56.5" ry="35.5"/><text fill="#000" font-family="monospace" font-size="18" letter-spacing="0" style="white-space:pre"><tspan x="180" y="61.825">Style</tspan></text><path fill="#000" d="M159.853 15.49a1 1 0 001.136-.843l1.326-8.902a1 1 0 00-1.978-.294l-1.179 7.913-7.913-1.179a1 1 0 10-.294 1.978l8.902 1.326zM103 14.5l.832.555h-.001.001l.002-.004.016-.022.07-.1c.064-.09.163-.225.297-.4.269-.35.678-.857 1.229-1.469a32.923 32.923 0 015.018-4.502C114.954 5.28 121.752 2 131 2V0c-9.752 0-16.954 3.469-21.714 6.942a34.92 34.92 0 00-5.326 4.78 26.695 26.695 0 00-1.33 1.59c-.149.193-.261.348-.338.456-.039.053-.068.096-.089.126l-.024.035-.007.01a.026.026 0 01-.003.004v.001c-.001 0-.001.001.831.556zM131 2c9.251 0 16.306 3.284 21.056 6.572a36.84 36.84 0 015.369 4.517 27.54 27.54 0 011.343 1.475c.148.176.258.312.329.403l.079.101.017.023.004.005.803-.596c.804-.595.803-.596.803-.596l-.001-.001-.002-.004-.008-.01-.026-.034-.097-.125c-.085-.107-.208-.26-.371-.454a29.203 29.203 0 00-1.441-1.584 38.86 38.86 0 00-5.663-4.764C148.194 3.466 140.749 0 131 0v2zM606.853 15.49a1 1 0 001.136-.843l1.326-8.902a1 1 0 00-1.978-.294l-1.179 7.913-7.913-1.179a1 1 0 10-.294 1.978l8.902 1.326zM550 14.5l.832.555h-.001.001l.002-.004.016-.022.07-.1c.064-.09.163-.225.297-.4.269-.35.678-.857 1.229-1.469a32.923 32.923 0 015.018-4.502C561.954 5.28 568.752 2 578 2V0c-9.752 0-16.954 3.469-21.714 6.942a34.92 34.92 0 00-5.326 4.78 26.695 26.695 0 00-1.33 1.59c-.149.193-.261.348-.338.456-.039.053-.068.096-.089.126l-.024.035-.007.01a.026.026 0 01-.003.004v.001c-.001 0-.001.001.831.556zM578 2c9.251 0 16.306 3.284 21.056 6.572a36.84 36.84 0 015.369 4.517 27.54 27.54 0 011.343 1.475c.148.176.258.312.329.403l.079.101.017.023.004.005.803-.596c.804-.595.803-.596.803-.596l-.001-.001-.002-.004-.008-.01-.026-.034-.097-.125c-.085-.107-.208-.26-.371-.454a29.203 29.203 0 00-1.441-1.584 38.86 38.86 0 00-5.663-4.764C595.194 3.466 587.749 0 578 0v2zM457.853 15.49a1 1 0 001.136-.843l1.326-8.902a1 1 0 00-1.978-.294l-1.179 7.913-7.913-1.179a1 1 0 10-.294 1.978l8.902 1.326zM401 14.5l.832.555h-.001.001l.002-.004.016-.022.07-.1c.064-.09.163-.225.297-.4.269-.35.678-.857 1.229-1.469a32.923 32.923 0 015.018-4.502C412.954 5.28 419.752 2 429 2V0c-9.752 0-16.954 3.469-21.714 6.942a34.92 34.92 0 00-5.326 4.78 26.695 26.695 0 00-1.33 1.59c-.149.193-.261.348-.338.456-.039.053-.068.096-.089.126l-.024.035-.007.01a.026.026 0 01-.003.004v.001c-.001 0-.001.001.831.556zM429 2c9.251 0 16.306 3.284 21.056 6.572a36.84 36.84 0 015.369 4.517 27.54 27.54 0 011.343 1.475c.148.176.258.312.329.403l.079.101.017.023.004.005.803-.596c.804-.595.803-.596.803-.596l-.001-.001-.002-.004-.008-.01-.026-.034-.097-.125c-.085-.107-.208-.26-.371-.454a29.203 29.203 0 00-1.441-1.584 38.86 38.86 0 00-5.663-4.764C446.194 3.466 438.749 0 429 0v2zM308.853 15.49a1 1 0 001.136-.843l1.326-8.902a1 1 0 00-1.978-.294l-1.179 7.913-7.913-1.179a1 1 0 10-.294 1.978l8.902 1.326zM252 14.5l.832.555h-.001.001l.002-.004.016-.022.07-.1c.064-.09.163-.225.297-.4.269-.35.678-.857 1.229-1.469a32.923 32.923 0 015.018-4.502C263.954 5.28 270.752 2 280 2V0c-9.752 0-16.954 3.469-21.714 6.942a34.92 34.92 0 00-5.326 4.78 26.695 26.695 0 00-1.33 1.59c-.149.193-.261.348-.338.456-.039.053-.068.096-.089.126l-.024.035-.007.01a.026.026 0 01-.003.004v.001c-.001 0-.001.001.831.556zM280 2c9.251 0 16.306 3.284 21.056 6.572a36.84 36.84 0 015.369 4.517 27.54 27.54 0 011.343 1.475c.148.176.258.312.329.403l.079.101.017.023.004.005.803-.596c.804-.595.803-.596.803-.596l-.001-.001-.002-.004-.008-.01-.026-.034-.097-.125c-.085-.107-.208-.26-.371-.454a29.203 29.203 0 00-1.441-1.584 38.86 38.86 0 00-5.663-4.764C297.194 3.466 289.749 0 280 0v2z"/></svg>
